<svg xmlns="http://www.w3.org/2000/svg" width="800" height="400" viewBox="0 0 800 400">
  <rect width="800" height="400" fill="#0a0f0a"/>
  <!-- Grid lines -->
  <line x1="0" y1="80" x2="800" y2="80" stroke="#009688" stroke-width="0.3" opacity="0.1"/>
  <line x1="0" y1="160" x2="800" y2="160" stroke="#009688" stroke-width="0.3" opacity="0.1"/>
  <line x1="0" y1="240" x2="800" y2="240" stroke="#009688" stroke-width="0.3" opacity="0.1"/>
  <line x1="0" y1="320" x2="800" y2="320" stroke="#009688" stroke-width="0.3" opacity="0.1"/>
  <line x1="200" y1="0" x2="200" y2="400" stroke="#009688" stroke-width="0.3" opacity="0.1"/>
  <line x1="400" y1="0" x2="400" y2="400" stroke="#009688" stroke-width="0.3" opacity="0.1"/>
  <line x1="600" y1="0" x2="600" y2="400" stroke="#009688" stroke-width="0.3" opacity="0.1"/>
  <!-- Header bar -->
  <rect x="0" y="0" width="800" height="36" fill="#001a17"/>
  <rect x="0" y="0" width="800" height="36" fill="#009688" opacity="0.06"/>
  <circle cx="20" cy="18" r="6" fill="#ff4444" opacity="0.8"/>
  <circle cx="42" cy="18" r="6" fill="#ffaa00" opacity="0.8"/>
  <circle cx="64" cy="18" r="6" fill="#009688" opacity="0.9"/>
  <text x="400" y="23" font-family="'Courier New', monospace" font-size="13" fill="#009688" text-anchor="middle" opacity="0.9">SHRTN.IO :: URL_SHORTENER_SYSTEM v1.0</text>
  <!-- Glow -->
  <defs>
    <radialGradient id="tealGlow" cx="50%" cy="55%" r="45%">
      <stop offset="0%" stop-color="#009688" stop-opacity="0.12"/>
      <stop offset="100%" stop-color="#0a0f0a" stop-opacity="0"/>
    </radialGradient>
    <filter id="tealFilter">
      <feGaussianBlur stdDeviation="4" result="coloredBlur"/>
      <feMerge>
        <feMergeNode in="coloredBlur"/>
        <feMergeNode in="SourceGraphic"/>
      </feMerge>
    </filter>
  </defs>
  <ellipse cx="400" cy="200" rx="340" ry="150" fill="url(#tealGlow)"/>
  <!-- URL input box -->
  <rect x="60" y="95" width="680" height="38" rx="3" fill="#0d1f1d" stroke="#009688" stroke-width="0.8" stroke-opacity="0.5"/>
  <text x="78" y="119" font-family="'Courier New', monospace" font-size="13" fill="#4a8a84">https://</text>
  <text x="131" y="119" font-family="'Courier New', monospace" font-size="13" fill="#e0e0e0">very-long-example-domain.com/blog/articles/how-to-shorten-your-urls-effectively</text>
  <!-- Arrow -->
  <text x="390" y="174" font-family="'Courier New', monospace" font-size="22" fill="#009688" text-anchor="middle" filter="url(#tealFilter)" opacity="0.9">▼</text>
  <!-- Short URL output -->
  <rect x="200" y="185" width="400" height="52" rx="3" fill="#0d1f1d" stroke="#009688" stroke-width="1.5" stroke-opacity="0.8"/>
  <text x="400" y="218" font-family="'Courier New', monospace" font-size="26" font-weight="bold" fill="#00e5d1" text-anchor="middle" filter="url(#tealFilter)" letter-spacing="2">shrtn.io/x4k2</text>
  <!-- Stats bar -->
  <rect x="60" y="262" width="680" height="1" fill="#009688" opacity="0.2"/>
  <!-- Click stats bars -->
  <rect x="110" y="310" width="20" height="30" rx="1" fill="#009688" opacity="0.5"/>
  <rect x="140" y="298" width="20" height="42" rx="1" fill="#009688" opacity="0.6"/>
  <rect x="170" y="285" width="20" height="55" rx="1" fill="#009688" opacity="0.7"/>
  <rect x="200" y="278" width="20" height="62" rx="1" fill="#009688" opacity="0.75"/>
  <rect x="230" y="270" width="20" height="70" rx="1" fill="#009688" opacity="0.8"/>
  <rect x="260" y="262" width="20" height="78" rx="1" fill="#009688" opacity="0.9"/>
  <rect x="290" y="268" width="20" height="72" rx="1" fill="#009688" opacity="0.85"/>
  <text x="200" y="279" font-family="'Courier New', monospace" font-size="10" fill="#009688" opacity="0.5">CLICKS</text>
  <!-- JWT / Auth badge -->
  <rect x="390" y="265" width="120" height="26" rx="2" fill="#009688" fill-opacity="0.1" stroke="#009688" stroke-width="0.5" stroke-opacity="0.5"/>
  <text x="450" y="282" font-family="'Courier New', monospace" font-size="11" fill="#009688" text-anchor="middle" opacity="0.85">JWT  AUTH</text>
  <rect x="524" y="265" width="120" height="26" rx="2" fill="#009688" fill-opacity="0.1" stroke="#009688" stroke-width="0.5" stroke-opacity="0.5"/>
  <text x="584" y="282" font-family="'Courier New', monospace" font-size="11" fill="#009688" text-anchor="middle" opacity="0.85">RATE LIMIT</text>
  <rect x="658" y="265" width="90" height="26" rx="2" fill="#009688" fill-opacity="0.1" stroke="#009688" stroke-width="0.5" stroke-opacity="0.5"/>
  <text x="703" y="282" font-family="'Courier New', monospace" font-size="11" fill="#009688" text-anchor="middle" opacity="0.85">bcrypt</text>
  <!-- Footer -->
  <text x="400" y="360" font-family="'Courier New', monospace" font-size="11" fill="#009688" text-anchor="middle" opacity="0.4">[ PYTHON · FASTAPI · SQLITE · JAVASCRIPT · TAILWINDCSS ]</text>
</svg>
